BBC Proms 2012 - 49. Gilbert and Sullivan

Sullivan
The Yeomen of the Guard (133 mins)
semi-staged

Leigh Melrose baritone (Lt Sir Richard Cholmondeley)
Andrew Kennedy tenor (Colonel Fairfax)
Lisa Milne soprano (Elsie Maynard)
Victoria Simmonds mezzo-soprano (Phoebe Meryll)
Felicity Palmer mezzo-soprano (Dame Carruthers)
Mary Bevan soprano (Kate)
Mark Richardson bass-baritone (Sergeant Meryll)
Tom Randle tenor (Leonard Meryll)
Mark Stone baritone (Jack Point)
Toby Stafford-Allen baritone (Wilfred Shadbolt)
BBC Singers
BBC Concert Orchestra
Jane Glover conductor
Martin Duncan stage director

Recent Proms seasons have seen a liberal sprinkling of complete Gilbert and Sullivan operettas, under such distinguished conductors as Jane Glover and the late Charles Mackerras. With its historic London setting, the grandest, most emotionally engaging of the Savoy operas is a must for 2012.

Video
ID                                       : 1
Format                                   : AVC
Format/Info                              : Advanced Video Codec
Format profile                           : High@L4.1
Format settings, CABAC                   : Yes
Format settings, ReFrames                : 6 frames
Codec ID                                 : avc1
Codec ID/Info                            : Advanced Video Coding
Duration                                 : 2h 28mn
Bit rate mode                            : Variable
Bit rate                                 : 2 689 Kbps
Maximum bit rate                         : 3 500 Kbps
Width                                    : 1 280 pixels
Height                                   : 720 pixels
Display aspect ratio                     : 16:9
Frame rate mode                          : Constant
Frame rate                               : 25.000 fps
Standard                                 : PAL
Color space                              : YUV
Chroma subsampling                       : 4:2:0
Bit depth                                : 8 bits
Scan type                                : Progressive
Bits/(Pixel*Frame)                       : 0.117
Stream size                              : 2.80 GiB (96%)

Audio
ID                                       : 2
Format                                   : AAC
Format/Info                              : Advanced Audio Codec
Format profile                           : HE-AAC / LC
Codec ID                                 : 40
Duration                                 : 2h 28mn
Bit rate mode                            : Constant
Bit rate                                 : 96.0 Kbps
Channel(s)                               : 2 channels
Channel positions                        : Front: L R
Sampling rate                            : 48.0 KHz / 24.0 KHz
Compression mode                         : Lossy
Stream size                              : 101 MiB (3%)